<svg width="288" height="511" viewBox="0 0 288 511" fill="none" xmlns="http://www.w3.org/2000/svg">
<g filter="url(#filter0_f_2341_935)">
<path d="M229.544 200.507C229.544 200.507 281.314 214.917 290.421 215.193L347.338 223.861L402.26 189.1C418.155 193.284 450.878 203.622 454.616 211.507C459.289 221.364 465.618 231.271 466.81 246.573C468.003 261.875 454.545 268.405 447.732 274.443C440.919 280.481 370.706 245.735 362.322 248.95C353.937 252.164 320.917 302.51 309.985 307.729C299.054 312.948 264.048 319.517 253.222 321.27C244.561 322.672 221.632 315.453 211.25 311.668L189.1 276.995L190.111 243.718L229.544 200.507Z" fill="#C6B6A1"/>
</g>
<defs>
<filter id="filter0_f_2341_935" x="-0.000396729" y="-3.05176e-05" width="655.985" height="510.548" filterUnits="userSpaceOnUse" color-interpolation-filters="sRGB">
<feFlood flood-opacity="0" result="BackgroundImageFix"/>
<feBlend mode="normal" in="SourceGraphic" in2="BackgroundImageFix" result="shape"/>
<feGaussianBlur stdDeviation="94.55" result="effect1_foregroundBlur_2341_935"/>
</filter>
</defs>
</svg>
